# Blender 4.1.1
# www.blender.org
mtllib player.mtl
o Cube
v 1.000000 1.000000 -1.000000
v 1.000000 -1.000000 -1.000000
v 1.000000 1.000000 1.000000
v 1.000000 -1.000000 1.000000
v -1.000000 1.000000 -1.000000
v -1.000000 -1.000000 -1.000000
v -1.000000 1.000000 1.000000
v -1.000000 -1.000000 1.000000
vn -0.0000 1.0000 -0.0000
vn -0.0000 -0.0000 1.0000
vn -1.0000 -0.0000 -0.0000
vn -0.0000 -1.0000 -0.0000
vn 1.0000 -0.0000 -0.0000
vn -0.0000 -0.0000 -1.0000
vt 0.616408 0.275039
vt 0.391447 0.050078
vt 0.616408 0.050078
vt 0.166486 0.724961
vt 0.391447 0.500000
vt 0.391447 0.724961
vt 0.391447 0.275039
vt 0.616408 0.500000
vt 0.616409 0.724961
vt 0.616409 0.949922
vt 0.841370 0.500000
vt 0.166486 0.500000
vt 0.391447 0.949922
vt 0.841370 0.724961
s 0
usemtl Material
f 5/1/1 3/2/1 1/3/1
f 3/4/2 8/5/2 4/6/2
f 7/7/3 6/8/3 8/5/3
f 2/9/4 8/5/4 6/8/4
f 1/10/5 4/6/5 2/9/5
f 5/11/6 2/9/6 6/8/6
f 5/1/1 7/7/1 3/2/1
f 3/4/2 7/12/2 8/5/2
f 7/7/3 5/1/3 6/8/3
f 2/9/4 4/6/4 8/5/4
f 1/10/5 3/13/5 4/6/5
f 5/11/6 1/14/6 2/9/6
