# Blender 4.1.1
# www.blender.org
mtllib heart.mtl
o 円柱.004
v 1.145548 -0.692358 -0.500000
v 1.145548 -0.692358 0.500000
v 0.947125 -0.923150 -0.500000
v 0.947125 -0.923150 0.500000
v 0.750734 -1.140379 -0.500000
v 0.750734 -1.140379 0.500000
v 0.563922 -1.335698 -0.500000
v 0.563922 -1.335698 0.500000
v 0.393868 -1.501601 -0.500000
v 0.393868 -1.501601 0.500000
v 0.247107 -1.631711 -0.500000
v 0.247107 -1.631711 0.500000
v 0.129280 -1.721028 -0.500000
v 0.129280 -1.721028 0.500000
v 0.044914 -1.766122 -0.500000
v 0.044914 -1.766122 0.500000
v -0.002749 -1.765258 -0.500000
v -0.002749 -1.765258 0.500000
v 2.002749 0.624801 -0.500000
v 2.002749 0.624801 0.500000
v 2.011876 0.578012 -0.500000
v 2.011876 0.578012 0.500000
v 1.982118 0.487098 -0.500000
v 1.982118 0.487098 0.500000
v 1.914617 0.355550 -0.500000
v 1.914617 0.355550 0.500000
v 1.811969 0.188426 -0.500000
v 1.811969 0.188426 0.500000
v 1.678116 -0.007853 -0.500000
v 1.678116 -0.007853 0.500000
v 1.518204 -0.225744 -0.500000
v 1.518204 -0.225744 0.500000
v 1.338378 -0.456873 -0.500000
v 1.338378 -0.456873 0.500000
v 2.000000 0.607204 -0.500000
v 0.000908 -1.792796 -0.500000
v 2.000000 0.607204 0.500000
v 0.000908 -1.792796 0.500000
v -2.000000 0.607204 -0.500000
v -0.000908 -1.792796 -0.500000
v -2.000000 0.607204 0.500000
v -0.000908 -1.792796 0.500000
v -1.010000 1.937204 -0.500000
v -1.010000 1.937204 0.500000
v -0.814910 1.911649 -0.500000
v -0.814910 1.911649 0.500000
v -0.627317 1.835964 -0.500000
v -0.627316 1.835963 0.500000
v -0.454430 1.713058 -0.500000
v -0.454430 1.713058 0.500000
v -0.302893 1.547656 -0.500000
v -0.302893 1.547656 0.500000
v -0.178530 1.346112 -0.500000
v -0.178530 1.346112 0.500000
v -0.086120 1.116173 -0.500000
v -0.086120 1.116173 0.500000
v -0.029215 0.866674 -0.500000
v -0.029215 0.866674 0.500000
v -0.010000 0.607204 -0.500000
v -0.010000 0.607204 0.500000
v -2.010000 0.607204 -0.500000
v -2.010000 0.607204 0.500000
v -1.990785 0.866674 -0.500000
v -1.990785 0.866674 0.500000
v -1.933880 1.116173 -0.500000
v -1.933880 1.116173 0.500000
v -1.841470 1.346112 -0.500000
v -1.841470 1.346112 0.500000
v -1.717107 1.547656 -0.500000
v -1.717107 1.547656 0.500000
v -1.565571 1.713059 -0.500000
v -1.565571 1.713059 0.500000
v -1.392684 1.835964 -0.500000
v -1.392684 1.835964 0.500000
v -1.205091 1.911649 -0.500000
v -1.205091 1.911649 0.500000
v 1.010000 1.937204 -0.500000
v 1.010000 1.937204 0.500000
v 1.205090 1.911648 -0.500000
v 1.205091 1.911648 0.500000
v 1.392683 1.835963 -0.500000
v 1.392684 1.835963 0.500000
v 1.565570 1.713058 -0.500000
v 1.565570 1.713058 0.500000
v 1.717107 1.547656 -0.500000
v 1.717107 1.547656 0.500000
v 1.841470 1.346112 -0.500000
v 1.841470 1.346112 0.500000
v 1.933880 1.116173 -0.500000
v 1.933880 1.116173 0.500000
v 1.990785 0.866674 -0.500000
v 1.990785 0.866674 0.500000
v 2.010000 0.607204 -0.500000
v 2.010000 0.607204 0.500000
v 0.010000 0.607204 -0.500000
v 0.010000 0.607204 0.500000
v 0.029215 0.866674 -0.500000
v 0.029215 0.866674 0.500000
v 0.086121 1.116173 -0.500000
v 0.086121 1.116173 0.500000
v 0.178530 1.346112 -0.500000
v 0.178530 1.346112 0.500000
v 0.302893 1.547656 -0.500000
v 0.302893 1.547656 0.500000
v 0.454430 1.713058 -0.500000
v 0.454430 1.713058 0.500000
v 0.627316 1.835964 -0.500000
v 0.627316 1.835964 0.500000
v 0.814910 1.911648 -0.500000
v 0.814910 1.911648 0.500000
v -1.145548 -0.692358 -0.500000
v -1.145548 -0.692358 0.500000
v -1.338378 -0.456873 -0.500000
v -1.338378 -0.456873 0.500000
v -1.518205 -0.225744 -0.500000
v -1.518205 -0.225744 0.500000
v -1.678117 -0.007853 -0.500000
v -1.678117 -0.007853 0.500000
v -1.811969 0.188426 -0.500000
v -1.811969 0.188426 0.500000
v -1.914617 0.355550 -0.500000
v -1.914617 0.355550 0.500000
v -1.982118 0.487098 -0.500000
v -1.982118 0.487098 0.500000
v -2.011877 0.578012 -0.500000
v -2.011877 0.578012 0.500000
v -2.002749 0.624801 -0.500000
v -2.002749 0.624801 0.500000
v 0.002749 -1.765258 -0.500000
v 0.002749 -1.765258 0.500000
v -0.044914 -1.766122 -0.500000
v -0.044914 -1.766122 0.500000
v -0.129280 -1.721029 -0.500000
v -0.129280 -1.721029 0.500000
v -0.247107 -1.631711 -0.500000
v -0.247107 -1.631711 0.500000
v -0.393868 -1.501601 -0.500000
v -0.393868 -1.501600 0.500000
v -0.563922 -1.335698 -0.500000
v -0.563922 -1.335698 0.500000
v -0.750734 -1.140379 -0.500000
v -0.750734 -1.140379 0.500000
v -0.947125 -0.923150 -0.500000
v -0.947125 -0.923150 0.500000
vn 0.7583 -0.6519 -0.0000
vn 0.7418 -0.6706 -0.0000
vn 0.7227 -0.6912 -0.0000
vn 0.6983 -0.7158 -0.0000
vn 0.6634 -0.7483 -0.0000
vn 0.6041 -0.7969 -0.0000
vn 0.4714 -0.8819 -0.0000
vn -0.0181 -0.9998 -0.0000
vn 0.9815 0.1915 -0.0000
vn 0.9504 -0.3111 -0.0000
vn 0.8897 -0.4565 -0.0000
vn 0.8521 -0.5234 -0.0000
vn 0.8262 -0.5634 -0.0000
vn 0.8062 -0.5917 -0.0000
vn -0.0000 -0.0000 1.0000
vn 0.7893 -0.6141 -0.0000
vn 0.7737 -0.6336 -0.0000
vn -0.0000 -0.0000 -1.0000
vn -0.7660 0.6428 -0.0000
vn -0.0000 1.0000 -0.0000
vn -0.7684 -0.6400 -0.0000
vn -0.0000 -1.0000 -0.0000
vn 0.7684 -0.6400 -0.0000
vn 0.1299 0.9915 -0.0000
vn 0.3741 0.9274 -0.0000
vn 0.5794 0.8150 -0.0000
vn 0.7373 0.6755 -0.0000
vn 0.8510 0.5251 -0.0000
vn 0.9279 0.3729 -0.0000
vn 0.9750 0.2224 -0.0000
vn 0.9973 0.0739 -0.0000
vn -0.9973 0.0739 -0.0000
vn -0.9750 0.2224 -0.0000
vn -0.9279 0.3729 -0.0000
vn -0.8510 0.5251 -0.0000
vn -0.7373 0.6755 -0.0000
vn -0.5794 0.8150 -0.0000
vn -0.3741 0.9274 -0.0000
vn -0.1299 0.9915 -0.0000
vn -0.7737 -0.6336 -0.0000
vn -0.7893 -0.6141 -0.0000
vn -0.8062 -0.5917 -0.0000
vn -0.8262 -0.5634 -0.0000
vn -0.8521 -0.5234 -0.0000
vn -0.8897 -0.4565 -0.0000
vn -0.9504 -0.3111 -0.0000
vn -0.9815 0.1915 -0.0000
vn 0.0181 -0.9998 -0.0000
vn -0.4714 -0.8819 -0.0000
vn -0.6041 -0.7969 -0.0000
vn -0.6634 -0.7483 -0.0000
vn -0.6983 -0.7158 -0.0000
vn -0.7227 -0.6912 -0.0000
vn -0.7418 -0.6706 -0.0000
vn -0.7583 -0.6519 -0.0000
vn 0.7660 0.6428 -0.0000
vt 1.000000 1.000000
vt 0.968750 0.500000
vt 1.000000 0.500000
vt 0.968750 1.000000
vt 0.937500 0.500000
vt 0.937500 1.000000
vt 0.906250 0.500000
vt 0.906250 1.000000
vt 0.875000 0.500000
vt 0.875000 1.000000
vt 0.843750 0.500000
vt 0.843750 1.000000
vt 0.812500 0.500000
vt 0.812500 1.000000
vt 0.781250 0.500000
vt 0.781250 1.000000
vt 0.750000 0.500000
vt 0.250000 1.000000
vt 0.218750 0.500000
vt 0.250000 0.500000
vt 0.218750 1.000000
vt 0.187500 0.500000
vt 0.187500 1.000000
vt 0.156250 0.500000
vt 0.156250 1.000000
vt 0.125000 0.500000
vt 0.125000 1.000000
vt 0.093750 0.500000
vt 0.093750 1.000000
vt 0.062500 0.500000
vt 0.250000 0.490000
vt 0.010000 0.250000
vt 0.449553 0.383337
vt 0.062500 1.000000
vt 0.031250 0.500000
vt 0.031250 1.000000
vt 0.000000 0.500000
vt 0.796822 0.485388
vt 0.510000 0.250000
vt 0.580294 0.419706
vt 0.490000 0.250000
vt 0.000000 0.000000
vt 0.750000 1.000000
vt 0.341844 0.471731
vt 0.296822 0.485388
vt 0.203178 0.485388
vt 0.158156 0.471731
vt 0.116663 0.449553
vt 0.080294 0.419706
vt 0.050447 0.383337
vt 0.028269 0.341844
vt 0.014612 0.296822
vt 0.485388 0.296822
vt 0.471731 0.341844
vt 0.419706 0.419706
vt 0.383337 0.449553
vt 0.000000 1.000000
vt 0.703178 0.485388
vt 0.750000 0.490000
vt 0.841844 0.471731
vt 0.883337 0.449553
vt 0.919706 0.419706
vt 0.949553 0.383337
vt 0.971731 0.341844
vt 0.985388 0.296822
vt 0.990000 0.250000
vt 0.514612 0.296822
vt 0.528269 0.341844
vt 0.550447 0.383337
vt 0.616663 0.449553
vt 0.658156 0.471731
s 0
usemtl Material
f 2/1/1 3/2/1 1/3/1
f 4/4/2 5/5/2 3/2/2
f 6/6/3 7/7/3 5/5/3
f 8/8/4 9/9/4 7/7/4
f 10/10/5 11/11/5 9/9/5
f 12/12/6 13/13/6 11/11/6
f 14/14/7 15/15/7 13/13/7
f 16/16/8 17/17/8 15/15/8
f 20/18/9 21/19/9 19/20/9
f 22/21/10 23/22/10 21/19/10
f 24/23/11 25/24/11 23/22/11
f 26/25/12 27/26/12 25/24/12
f 28/27/13 29/28/13 27/26/13
f 30/29/14 31/30/14 29/28/14
f 2/31/15 20/32/15 12/33/15
f 32/34/16 33/35/16 31/30/16
f 34/36/17 1/37/17 33/35/17
f 3/38/18 19/39/18 27/40/18
f 18/41/19 19/39/19 17/17/19
f 39/42/20 37/42/20 35/42/20
f 37/42/15 42/42/15 38/42/15
f 41/42/21 40/42/21 42/42/21
f 36/42/22 42/42/22 40/42/22
f 35/42/23 38/42/23 36/42/23
f 40/42/18 35/42/18 36/42/18
f 43/3/24 46/4/24 45/2/24
f 46/4/25 47/5/25 45/2/25
f 48/6/26 49/7/26 47/5/26
f 50/8/27 51/9/27 49/7/27
f 52/10/28 53/11/28 51/9/28
f 54/12/29 55/13/29 53/11/29
f 56/14/30 57/15/30 55/13/30
f 57/15/31 60/43/31 59/17/31
f 62/18/32 63/19/32 61/20/32
f 64/21/33 65/22/33 63/19/33
f 66/23/34 67/24/34 65/22/34
f 68/25/35 69/26/35 67/24/35
f 70/27/36 71/28/36 69/26/36
f 72/29/37 73/30/37 71/28/37
f 44/31/15 62/32/15 54/33/15
f 74/34/38 75/35/38 73/30/38
f 76/36/39 43/37/39 75/35/39
f 45/38/18 61/39/18 69/40/18
f 60/41/22 61/39/22 59/17/22
f 78/1/24 79/2/24 77/3/24
f 80/4/25 81/5/25 79/2/25
f 82/6/26 83/7/26 81/5/26
f 84/8/27 85/9/27 83/7/27
f 86/10/28 87/11/28 85/9/28
f 88/12/29 89/13/29 87/11/29
f 90/14/30 91/15/30 89/13/30
f 92/16/31 93/17/31 91/15/31
f 96/18/32 97/19/32 95/20/32
f 98/21/33 99/22/33 97/19/33
f 100/23/34 101/24/34 99/22/34
f 102/25/35 103/26/35 101/24/35
f 104/27/36 105/28/36 103/26/36
f 106/29/37 107/30/37 105/28/37
f 78/31/15 96/32/15 88/33/15
f 108/34/38 109/35/38 107/30/38
f 110/36/39 77/37/39 109/35/39
f 79/38/18 95/39/18 103/40/18
f 94/41/22 95/39/22 93/17/22
f 112/1/40 113/2/40 111/3/40
f 114/4/41 115/5/41 113/2/41
f 116/6/42 117/7/42 115/5/42
f 118/8/43 119/9/43 117/7/43
f 120/10/44 121/11/44 119/9/44
f 122/12/45 123/13/45 121/11/45
f 124/14/46 125/15/46 123/13/46
f 126/16/47 127/17/47 125/15/47
f 130/18/48 131/19/48 129/20/48
f 132/21/49 133/22/49 131/19/49
f 134/23/50 135/24/50 133/22/50
f 136/25/51 137/26/51 135/24/51
f 138/27/52 139/28/52 137/26/52
f 140/29/53 141/30/53 139/28/53
f 112/31/15 130/32/15 122/33/15
f 142/34/54 143/35/54 141/30/54
f 144/36/55 111/37/55 143/35/55
f 113/38/18 129/39/18 137/40/18
f 128/41/56 129/39/56 127/17/56
f 2/1/1 4/4/1 3/2/1
f 4/4/2 6/6/2 5/5/2
f 6/6/3 8/8/3 7/7/3
f 8/8/4 10/10/4 9/9/4
f 10/10/5 12/12/5 11/11/5
f 12/12/6 14/14/6 13/13/6
f 14/14/7 16/16/7 15/15/7
f 16/16/8 18/43/8 17/17/8
f 20/18/9 22/21/9 21/19/9
f 22/21/10 24/23/10 23/22/10
f 24/23/11 26/25/11 25/24/11
f 26/25/12 28/27/12 27/26/12
f 28/27/13 30/29/13 29/28/13
f 30/29/14 32/34/14 31/30/14
f 6/44/15 4/45/15 2/31/15
f 2/31/15 34/46/15 32/47/15
f 32/47/15 30/48/15 28/49/15
f 28/49/15 26/50/15 24/51/15
f 24/51/15 22/52/15 20/32/15
f 20/32/15 18/41/15 16/53/15
f 16/53/15 14/54/15 12/33/15
f 12/33/15 10/55/15 8/56/15
f 8/56/15 6/44/15 2/31/15
f 2/31/15 32/47/15 28/49/15
f 28/49/15 24/51/15 20/32/15
f 20/32/15 16/53/15 12/33/15
f 12/33/15 8/56/15 2/31/15
f 2/31/15 28/49/15 20/32/15
f 32/34/16 34/36/16 33/35/16
f 34/36/17 2/57/17 1/37/17
f 33/58/18 1/59/18 3/38/18
f 3/38/18 5/60/18 7/61/18
f 7/61/18 9/62/18 11/63/18
f 11/63/18 13/64/18 15/65/18
f 15/65/18 17/66/18 19/39/18
f 19/39/18 21/67/18 23/68/18
f 23/68/18 25/69/18 27/40/18
f 27/40/18 29/70/18 31/71/18
f 31/71/18 33/58/18 3/38/18
f 3/38/18 7/61/18 11/63/18
f 11/63/18 15/65/18 19/39/18
f 19/39/18 23/68/18 27/40/18
f 27/40/18 31/71/18 3/38/18
f 3/38/18 11/63/18 19/39/18
f 18/41/19 20/18/19 19/39/19
f 39/42/20 41/42/20 37/42/20
f 37/42/15 41/42/15 42/42/15
f 41/42/21 39/42/21 40/42/21
f 36/42/22 38/42/22 42/42/22
f 35/42/23 37/42/23 38/42/23
f 40/42/18 39/42/18 35/42/18
f 43/3/24 44/1/24 46/4/24
f 46/4/25 48/6/25 47/5/25
f 48/6/26 50/8/26 49/7/26
f 50/8/27 52/10/27 51/9/27
f 52/10/28 54/12/28 53/11/28
f 54/12/29 56/14/29 55/13/29
f 56/14/30 58/16/30 57/15/30
f 57/15/31 58/16/31 60/43/31
f 62/18/32 64/21/32 63/19/32
f 64/21/33 66/23/33 65/22/33
f 66/23/34 68/25/34 67/24/34
f 68/25/35 70/27/35 69/26/35
f 70/27/36 72/29/36 71/28/36
f 72/29/37 74/34/37 73/30/37
f 48/44/15 46/45/15 44/31/15
f 44/31/15 76/46/15 74/47/15
f 74/47/15 72/48/15 70/49/15
f 70/49/15 68/50/15 66/51/15
f 66/51/15 64/52/15 62/32/15
f 62/32/15 60/41/15 58/53/15
f 58/53/15 56/54/15 54/33/15
f 54/33/15 52/55/15 50/56/15
f 50/56/15 48/44/15 44/31/15
f 44/31/15 74/47/15 70/49/15
f 70/49/15 66/51/15 62/32/15
f 62/32/15 58/53/15 54/33/15
f 54/33/15 50/56/15 44/31/15
f 44/31/15 70/49/15 62/32/15
f 74/34/38 76/36/38 75/35/38
f 76/36/39 44/57/39 43/37/39
f 75/58/18 43/59/18 45/38/18
f 45/38/18 47/60/18 49/61/18
f 49/61/18 51/62/18 53/63/18
f 53/63/18 55/64/18 57/65/18
f 57/65/18 59/66/18 61/39/18
f 61/39/18 63/67/18 65/68/18
f 65/68/18 67/69/18 69/40/18
f 69/40/18 71/70/18 73/71/18
f 73/71/18 75/58/18 45/38/18
f 45/38/18 49/61/18 53/63/18
f 53/63/18 57/65/18 61/39/18
f 61/39/18 65/68/18 69/40/18
f 69/40/18 73/71/18 45/38/18
f 45/38/18 53/63/18 61/39/18
f 60/41/22 62/18/22 61/39/22
f 78/1/24 80/4/24 79/2/24
f 80/4/25 82/6/25 81/5/25
f 82/6/26 84/8/26 83/7/26
f 84/8/27 86/10/27 85/9/27
f 86/10/28 88/12/28 87/11/28
f 88/12/29 90/14/29 89/13/29
f 90/14/30 92/16/30 91/15/30
f 92/16/31 94/43/31 93/17/31
f 96/18/32 98/21/32 97/19/32
f 98/21/33 100/23/33 99/22/33
f 100/23/34 102/25/34 101/24/34
f 102/25/35 104/27/35 103/26/35
f 104/27/36 106/29/36 105/28/36
f 106/29/37 108/34/37 107/30/37
f 82/44/15 80/45/15 78/31/15
f 78/31/15 110/46/15 108/47/15
f 108/47/15 106/48/15 104/49/15
f 104/49/15 102/50/15 100/51/15
f 100/51/15 98/52/15 96/32/15
f 96/32/15 94/41/15 92/53/15
f 92/53/15 90/54/15 88/33/15
f 88/33/15 86/55/15 84/56/15
f 84/56/15 82/44/15 78/31/15
f 78/31/15 108/47/15 104/49/15
f 104/49/15 100/51/15 96/32/15
f 96/32/15 92/53/15 88/33/15
f 88/33/15 84/56/15 78/31/15
f 78/31/15 104/49/15 96/32/15
f 108/34/38 110/36/38 109/35/38
f 110/36/39 78/57/39 77/37/39
f 109/58/18 77/59/18 79/38/18
f 79/38/18 81/60/18 83/61/18
f 83/61/18 85/62/18 87/63/18
f 87/63/18 89/64/18 91/65/18
f 91/65/18 93/66/18 95/39/18
f 95/39/18 97/67/18 99/68/18
f 99/68/18 101/69/18 103/40/18
f 103/40/18 105/70/18 107/71/18
f 107/71/18 109/58/18 79/38/18
f 79/38/18 83/61/18 87/63/18
f 87/63/18 91/65/18 95/39/18
f 95/39/18 99/68/18 103/40/18
f 103/40/18 107/71/18 79/38/18
f 79/38/18 87/63/18 95/39/18
f 94/41/22 96/18/22 95/39/22
f 112/1/40 114/4/40 113/2/40
f 114/4/41 116/6/41 115/5/41
f 116/6/42 118/8/42 117/7/42
f 118/8/43 120/10/43 119/9/43
f 120/10/44 122/12/44 121/11/44
f 122/12/45 124/14/45 123/13/45
f 124/14/46 126/16/46 125/15/46
f 126/16/47 128/43/47 127/17/47
f 130/18/48 132/21/48 131/19/48
f 132/21/49 134/23/49 133/22/49
f 134/23/50 136/25/50 135/24/50
f 136/25/51 138/27/51 137/26/51
f 138/27/52 140/29/52 139/28/52
f 140/29/53 142/34/53 141/30/53
f 116/44/15 114/45/15 112/31/15
f 112/31/15 144/46/15 142/47/15
f 142/47/15 140/48/15 138/49/15
f 138/49/15 136/50/15 134/51/15
f 134/51/15 132/52/15 130/32/15
f 130/32/15 128/41/15 126/53/15
f 126/53/15 124/54/15 122/33/15
f 122/33/15 120/55/15 118/56/15
f 118/56/15 116/44/15 112/31/15
f 112/31/15 142/47/15 138/49/15
f 138/49/15 134/51/15 130/32/15
f 130/32/15 126/53/15 122/33/15
f 122/33/15 118/56/15 112/31/15
f 112/31/15 138/49/15 130/32/15
f 142/34/54 144/36/54 143/35/54
f 144/36/55 112/57/55 111/37/55
f 143/58/18 111/59/18 113/38/18
f 113/38/18 115/60/18 117/61/18
f 117/61/18 119/62/18 121/63/18
f 121/63/18 123/64/18 125/65/18
f 125/65/18 127/66/18 129/39/18
f 129/39/18 131/67/18 133/68/18
f 133/68/18 135/69/18 137/40/18
f 137/40/18 139/70/18 141/71/18
f 141/71/18 143/58/18 113/38/18
f 113/38/18 117/61/18 121/63/18
f 121/63/18 125/65/18 129/39/18
f 129/39/18 133/68/18 137/40/18
f 137/40/18 141/71/18 113/38/18
f 113/38/18 121/63/18 129/39/18
f 128/41/56 130/18/56 129/39/56
