# Blender 4.1.1
# www.blender.org
mtllib float_L_arm.mtl
o 立方体.004
v 1.067439 -0.976912 -0.323555
v 1.067439 -0.376462 -0.323555
v 1.067439 -0.976912 0.323555
v 1.067439 -0.376462 0.323555
v 0.031792 -0.173069 -0.173253
v 0.031792 0.148452 -0.173253
v 0.031792 -0.173069 0.173253
v 0.031792 0.148452 0.173253
vn 1.0000 -0.0000 -0.0000
vn -0.1436 -0.0000 0.9896
vn -1.0000 -0.0000 -0.0000
vn -0.1436 -0.0000 -0.9896
vn -0.6132 -0.7900 -0.0000
vn 0.4521 0.8920 -0.0000
vt 0.328024 0.053652
vt 0.195328 0.099729
vt 0.243658 0.008806
vt 0.279694 0.144574
vt 0.230113 0.306802
vt 0.275289 0.330815
vt 0.204234 0.355488
vt 0.097498 0.487335
vt 0.013132 0.442490
vt 0.057136 0.187771
vt 0.008806 0.278693
vt 0.449651 0.396413
vt 0.249409 0.379501
vt 0.401321 0.487335
s 0
usemtl tex
f 2/1/1 3/2/1 1/3/1
f 4/4/2 7/5/2 3/2/2
f 8/6/3 5/7/3 7/5/3
f 5/7/4 2/8/4 1/9/4
f 3/10/5 5/7/5 1/11/5
f 4/12/6 6/13/6 8/6/6
f 2/1/1 4/4/1 3/2/1
f 4/4/2 8/6/2 7/5/2
f 8/6/3 6/13/3 5/7/3
f 5/7/4 6/13/4 2/8/4
f 3/10/5 7/5/5 5/7/5
f 4/12/6 2/14/6 6/13/6
