# Blender 4.1.1
# www.blender.org
mtllib restBeforeObject.mtl
o 平面.003
v 10.000000 -0.999997 10.000000
v 10.000000 19.000002 9.999998
v 10.000000 -0.999999 -10.000000
v 10.000000 19.000002 -10.000002
v -10.000000 -10.000000 10.000001
v -10.000000 -10.000000 -9.999999
v -10.000000 -0.000000 10.000000
v 10.000000 -10.000000 10.000001
v 10.000000 -10.000000 -9.999999
v 10.000000 -0.000000 10.000000
v 10.000000 0.000000 -10.000000
v -10.000000 0.000000 -10.000000
v -10.000000 19.000002 9.999998
v 10.000000 19.000002 9.999998
v -10.000000 -0.999997 10.000000
v 10.000000 -0.999997 10.000000
v -9.000000 -23.900000 9.000002
v 9.000000 -23.900000 9.000002
v -9.000000 -23.900000 -8.999998
v 9.000000 -23.900000 -8.999998
v -10.000000 -0.999999 -10.000000
v 10.000000 -0.999999 -10.000000
v -10.000000 19.000002 -10.000002
v 10.000000 19.000002 -10.000002
v -10.000000 19.000002 9.999998
v -10.000000 -0.999997 10.000000
v -10.000000 19.000002 -10.000002
v -10.000000 -0.999999 -10.000000
v -7.478448 -24.000000 7.478450
v -9.000000 -24.000000 9.000002
v 9.000000 -24.000000 9.000002
v -7.478448 -8.000000 7.478448
v -7.478448 -24.000000 -7.478446
v 7.478448 -24.000000 7.478450
v 7.478448 -8.000000 7.478448
v 7.478448 -8.000001 -7.478447
v 9.000000 -8.000000 9.000001
v -9.000000 -8.000000 9.000001
v -9.000000 -24.000000 -8.999998
v -9.000000 -8.000001 -8.999999
v -7.478448 -8.000001 -7.478447
v 9.000000 -24.000000 -8.999998
v 9.000000 -8.000001 -8.999999
v 7.478448 -24.000000 -7.478446
vn -1.0000 -0.0000 -0.0000
vn -0.0000 -1.0000 -0.0000
vn -0.0000 -0.0000 1.0000
vn 1.0000 -0.0000 -0.0000
vn -0.0000 1.0000 -0.0000
vn -0.0000 -0.0000 -1.0000
vt 0.829479 0.274765
vt 0.650032 0.095317
vt 0.829479 0.095317
vt 0.650032 0.274765
vt 0.539571 0.451575
vt 0.360123 0.631023
vt 0.360123 0.451575
vt 0.629294 0.092679
vt 0.539571 0.272127
vt 0.539571 0.092679
vt 0.629294 0.631023
vt 0.539571 0.810470
vt 0.539571 0.631023
vt 0.629295 0.451575
vt 0.808742 0.451575
vt 0.629295 0.272127
vt 0.330336 0.651760
vt 0.509784 0.831207
vt 0.330336 0.831207
vt 0.509784 0.651760
vt 0.828688 0.298167
vt 0.990191 0.459670
vt 0.828688 0.459670
vt 0.990191 0.298167
vt 0.829479 0.832935
vt 0.650032 0.653488
vt 0.829479 0.653488
vt 0.650032 0.832935
vt 0.190089 0.879594
vt 0.010641 0.700146
vt 0.190089 0.700146
vt 0.010641 0.879594
vt 0.249098 0.711095
vt 0.255962 0.714347
vt 0.255126 0.714112
vt 0.238773 0.729128
vt 0.249558 0.718587
vt 0.269864 0.715203
vt 0.271768 0.722976
vt 0.279235 0.681812
vt 0.271360 0.714837
vt 0.286049 0.740003
vt 0.349072 0.010269
vt 0.349073 0.391491
vt 0.075533 0.416471
vt 0.010209 0.010269
vt 0.275681 0.709678
vt 0.273814 0.793190
vt 0.226538 0.782314
vt 0.197061 0.675694
vt 0.273098 0.708447
vt 0.307487 0.662699
vt 0.230141 0.687271
vt 0.247188 0.713586
vt 0.629294 0.810470
vt 0.808742 0.631023
s 0
usemtl マテリアル
f 2/1/1 3/2/1 1/3/1
f 2/1/1 4/4/1 3/2/1
f 9/5/2 5/6/2 6/7/2
f 7/8/1 6/9/1 5/10/1
f 10/11/3 5/12/3 8/13/3
f 11/14/4 8/13/4 9/5/4
f 12/15/5 10/11/5 11/14/5
f 12/16/6 9/5/6 6/9/6
f 14/17/6 15/18/6 13/19/6
f 14/17/6 16/20/6 15/18/6
f 18/21/5 19/22/5 17/23/5
f 18/21/5 20/24/5 19/22/5
f 22/25/3 23/26/3 21/27/3
f 22/25/3 24/28/3 23/26/3
f 26/29/4 27/30/4 25/31/4
f 26/29/4 28/32/4 27/30/4
f 33/33/2 29/34/2 30/35/2
f 29/34/2 31/36/2 30/35/2
f 29/34/2 34/37/2 31/36/2
f 32/38/4 29/34/4 33/33/4
f 35/39/6 29/34/6 32/38/6
f 35/39/6 34/37/6 29/34/6
f 36/40/1 34/37/1 35/39/1
f 35/39/5 32/38/5 38/41/5
f 36/40/5 35/39/5 37/42/5
f 35/39/5 38/41/5 37/42/5
f 38/43/1 40/44/1 39/45/1
f 38/43/1 39/45/1 30/46/1
f 32/38/5 40/47/5 38/41/5
f 37/42/3 38/48/3 30/49/3
f 40/44/6 42/50/6 39/45/6
f 32/38/5 41/51/5 40/47/5
f 41/51/5 43/52/5 40/47/5
f 40/44/6 43/52/6 42/50/6
f 43/52/4 31/36/4 42/50/4
f 41/51/5 36/40/5 43/52/5
f 43/52/4 37/42/4 31/36/4
f 36/40/5 37/42/5 43/52/5
f 44/53/2 39/54/2 42/50/2
f 34/37/2 42/50/2 31/36/2
f 34/37/2 44/53/2 42/50/2
f 41/51/3 33/33/3 44/53/3
f 44/53/2 33/33/2 39/54/2
f 36/40/1 44/53/1 34/37/1
f 41/51/3 44/53/3 36/40/3
f 32/38/4 33/33/4 41/51/4
f 33/33/2 30/35/2 39/54/2
f 37/42/3 30/49/3 31/36/3
f 9/5/2 8/13/2 5/6/2
f 7/8/1 12/16/1 6/9/1
f 10/11/3 7/55/3 5/12/3
f 11/14/4 10/11/4 8/13/4
f 12/15/5 7/56/5 10/11/5
f 12/16/6 11/14/6 9/5/6
