# Blender 4.1.1
# www.blender.org
mtllib wall.mtl
o 平面.001
v 50.000072 -1600.000000 -50.000004
v 50.000069 -1600.000000 49.999996
v 49.999931 1600.000000 -50.000004
v 49.999928 1600.000000 49.999996
v -50.000061 -1600.000000 50.000000
v -50.000076 -1600.000000 -50.000004
v -49.999924 1600.000000 50.000000
v -49.999939 1600.000000 -50.000004
v 50.000011 -1600.000000 50.000076
v -49.999985 -1600.000000 50.000069
v 50.000011 1600.000000 49.999935
v -50.000000 1600.000000 49.999924
v -50.000000 -1600.000000 -50.000069
v 50.000000 -1600.000000 -50.000065
v -50.000000 1600.000000 -49.999928
v 50.000004 1600.000000 -49.999928
vn -1.0000 -0.0000 -0.0000
vn 1.0000 -0.0000 -0.0000
vn -0.0000 -0.0000 -1.0000
vn -0.0000 -0.0000 1.0000
vt 0.000000 0.000000
vt 1.000000 0.000000
vt 1.000000 1.000000
vt 0.000000 1.000000
s 0
usemtl マテリアル.004
f 1/1/1 2/2/1 4/3/1 3/4/1
usemtl マテリアル.003
f 5/1/2 6/2/2 8/3/2 7/4/2
usemtl マテリアル.001
f 9/1/3 10/2/3 12/3/3 11/4/3
usemtl マテリアル.002
f 13/1/4 14/2/4 16/3/4 15/4/4
