# Blender 4.1.1
# www.blender.org
mtllib wall.mtl
o 平面.004
v 49.999931 -1600.000000 50.000000
v 49.999928 -1600.000000 -50.000000
v 50.000072 1600.000000 50.000000
v 50.000069 1600.000000 -50.000000
v -50.000008 -1600.000000 49.999928
v 49.999996 -1600.000000 49.999928
v -50.000008 1600.000000 50.000069
v 50.000000 1600.000000 50.000072
v -49.999992 -1600.000000 -50.000069
v 50.000000 -1600.000000 -50.000065
v -49.999992 1600.000000 -49.999928
v 50.000004 1600.000000 -49.999928
v -50.000069 -1600.000000 50.000000
v -50.000069 -1600.000000 -50.000004
v -49.999931 1600.000000 50.000000
v -49.999931 1600.000000 -50.000004
vn 1.0000 -0.0000 -0.0000
vn -0.0000 -0.0000 1.0000
vt 0.000000 0.000000
vt 1.000000 0.000000
vt 1.000000 1.000000
vt 0.000000 1.000000
s 0
usemtl マテリアル.004
f 1/1/1 2/2/1 4/3/1 3/4/1
usemtl マテリアル.001
f 5/1/2 6/2/2 8/3/2 7/4/2
usemtl マテリアル.002
f 9/1/2 10/2/2 12/3/2 11/4/2
usemtl マテリアル.003
f 13/1/1 14/2/1 16/3/1 15/4/1
