# Blender 4.1.1
# www.blender.org
mtllib float_Head.mtl
o 立方体.003
v -0.390264 0.127436 -0.333602
v -0.390264 0.127436 0.333602
v -0.390264 0.782585 -0.333602
v -0.390264 0.782584 0.333602
v 0.383896 0.127436 -0.333602
v 0.383896 0.127436 0.333602
v 0.383896 0.782585 -0.333602
v 0.383896 0.782584 0.333602
vn -1.0000 -0.0000 -0.0000
vn -0.0000 1.0000 -0.0000
vn 1.0000 -0.0000 -0.0000
vn -0.0000 -1.0000 -0.0000
vn -0.0000 -0.0000 -1.0000
vn -0.0000 -0.0000 1.0000
vt 0.435444 0.580019
vt 0.584230 0.578663
vt 0.509159 0.653734
vt 0.596264 0.740839
vt 0.671335 0.665768
vt 0.669979 0.814553
vt 0.745050 0.739482
vt 0.757084 0.901659
vt 0.582873 0.901659
vt 0.509159 0.827944
vt 0.758440 0.578663
vt 0.510515 0.504948
vt 0.832155 0.826588
vt 0.832155 0.652377
s 0
usemtl tex
f 1/1/1 4/2/1 3/3/1
f 4/2/2 7/4/2 3/3/2
f 8/5/3 5/6/3 7/4/3
f 6/7/4 1/8/4 5/6/4
f 7/4/5 1/9/5 3/10/5
f 4/11/6 6/7/6 8/5/6
f 1/1/1 2/12/1 4/2/1
f 4/2/2 8/5/2 7/4/2
f 8/5/3 6/7/3 5/6/3
f 6/7/4 2/13/4 1/8/4
f 7/4/5 5/6/5 1/9/5
f 4/11/6 2/14/6 6/7/6
